<svg width="64" height="64" viewBox="0 0 64 64" fill="none" xmlns="http://www.w3.org/2000/svg">
<g opacity="0.78">
<path d="M4 24.2662C4 17.1722 4 13.6252 5.38058 10.9156C6.59498 8.53225 8.53273 6.59449 10.9161 5.3801C13.6257 3.99951 17.1727 3.99951 24.2667 3.99951H39.7333C46.8273 3.99951 50.3743 3.99951 53.0839 5.3801C55.4673 6.59449 57.405 8.53225 58.6194 10.9156C60 13.6252 60 17.1722 60 24.2662V39.7328C60 46.8268 60 50.3738 58.6194 53.0834C57.405 55.4668 55.4673 57.4045 53.0839 58.6189C50.3743 59.9995 46.8273 59.9995 39.7333 59.9995H24.2667C17.1727 59.9995 13.6257 59.9995 10.9161 58.6189C8.53273 57.4045 6.59498 55.4668 5.38058 53.0834C4 50.3738 4 46.8268 4 39.7328V24.2662Z" fill="#1E252B"/>
<path d="M19.7334 32.7995C11.9334 38.5403 10.4 46.9329 10.4 53.9329C10.7556 51.844 12.3867 46.9462 16.0667 44.0662C21.5334 39.7879 31.5333 41.1973 42.4667 33.9329C53.4001 26.6684 54.4667 17.1995 53.0667 9.93286C52.094 16.9446 48.7744 20.0005 44.2 22.7329C34.2668 28.6662 28.0668 26.6662 19.7334 32.7995Z" fill="url(#paint0_linear_50_198)"/>
<path d="M19.7334 32.7995C11.9334 38.5403 10.4 46.9329 10.4 53.9329C10.7556 51.844 12.3867 46.9462 16.0667 44.0662C21.5334 39.7879 31.5333 41.1973 42.4667 33.9329C53.4001 26.6684 54.4667 17.1995 53.0667 9.93286C52.094 16.9446 48.7744 20.0005 44.2 22.7329C34.2668 28.6662 28.0668 26.6662 19.7334 32.7995Z" fill="url(#paint1_linear_50_198)"/>
<path d="M10.4933 51.0634C10.9213 44.7385 12.975 37.7736 19.7333 32.7995C24.0777 29.602 27.8422 28.6151 31.8582 27.5621C34.2018 26.9477 36.6311 26.3108 39.3112 25.199C38.3334 26.1328 33.6871 28.3128 30.1825 29.7694C26.6871 31.2222 23.0018 32.7538 19.9334 34.7995C13.777 38.9037 11.2737 46.0445 10.4933 51.0634Z" fill="url(#paint2_linear_50_198)"/>
<path d="M10.4933 51.0634C10.9213 44.7385 12.975 37.7736 19.7333 32.7995C24.0777 29.602 27.8422 28.6151 31.8582 27.5621C34.2018 26.9477 36.6311 26.3108 39.3112 25.199C38.3334 26.1328 33.6871 28.3128 30.1825 29.7694C26.6871 31.2222 23.0018 32.7538 19.9334 34.7995C13.777 38.9037 11.2737 46.0445 10.4933 51.0634Z" fill="url(#paint3_linear_50_198)"/>
<path d="M48.4355 28.7413C47.6689 29.4922 46.8141 30.1644 45.8668 30.7329C41.6001 33.2929 37.065 34.1184 32.6522 34.9218C29.1357 35.5619 25.6969 36.1879 22.5334 37.6662C15.4006 40.9993 11.0007 47.9319 10.4002 53.9317C10.4002 53.9319 10.4001 53.9322 10.4001 53.9324C10.4001 53.9313 10.4 53.9303 10.4 53.9292C10.4001 53.4712 10.4067 53.0073 10.4212 52.5385C10.4575 51.7949 10.5344 50.9708 10.6616 50.0921C11.6033 45.1579 14.1644 38.6455 19.9334 34.7995C22.3756 33.1714 25.2084 31.8688 28.0254 30.6725C30.5027 29.8592 32.7354 29.353 34.8626 28.8707C38.2111 28.1116 41.2983 27.4117 44.6668 25.6662C51.7349 22.0036 53.5868 14.4771 53.089 10.0498C54.1458 15.6596 53.7186 22.5593 48.4355 28.7413Z" fill="url(#paint4_linear_50_198)"/>
<path d="M48.4353 28.7415C47.6687 29.4923 46.814 30.1645 45.8667 30.7329C41.6 33.2929 37.0649 34.1185 32.6521 34.9218C29.1357 35.5619 25.6968 36.188 22.5334 37.6662C18.4313 39.5831 15.2331 42.6905 13.1416 46.1263C14.987 43.5333 17.7983 40.6365 21.2667 39.5329C24.6512 38.456 27.8795 38.3447 31.2333 38.2291C32.1946 38.196 33.1662 38.1625 34.1547 38.1058C36.8189 37.136 39.6109 35.8303 42.4666 33.9329C44.9281 32.2974 46.8895 30.5501 48.4353 28.7415Z" fill="url(#paint5_linear_50_198)"/>
<path d="M48.4353 28.7415C47.6687 29.4923 46.814 30.1645 45.8667 30.7329C41.6 33.2929 37.0649 34.1185 32.6521 34.9218C29.1357 35.5619 25.6968 36.188 22.5334 37.6662C18.4313 39.5831 15.2331 42.6905 13.1416 46.1263C14.987 43.5333 17.7983 40.6365 21.2667 39.5329C24.6512 38.456 27.8795 38.3447 31.2333 38.2291C32.1946 38.196 33.1662 38.1625 34.1547 38.1058C36.8189 37.136 39.6109 35.8303 42.4666 33.9329C44.9281 32.2974 46.8895 30.5501 48.4353 28.7415Z" fill="url(#paint6_linear_50_198)"/>
<path d="M53.0889 10.0498C53.0816 10.0108 53.0741 9.97178 53.0666 9.93286C52.0939 16.9446 48.7744 20.0005 44.2 22.7329C42.4671 23.7679 40.8479 24.5616 39.3111 25.1991C38.3331 26.133 33.687 28.3129 30.1825 29.7694L30.1819 29.7697C29.4687 30.0661 28.7476 30.3658 28.0254 30.6725C30.5027 29.8592 32.7353 29.353 34.8625 28.8707C38.2111 28.1116 41.2982 27.4117 44.6667 25.6662C51.7349 22.0036 53.5867 14.4771 53.0889 10.0498Z" fill="url(#paint7_linear_50_198)"/>
<path d="M53.0889 10.0498C53.0816 10.0108 53.0741 9.97178 53.0666 9.93286C52.0939 16.9446 48.7744 20.0005 44.2 22.7329C42.4671 23.7679 40.8479 24.5616 39.3111 25.1991C38.3331 26.133 33.687 28.3129 30.1825 29.7694L30.1819 29.7697C29.4687 30.0661 28.7476 30.3658 28.0254 30.6725C30.5027 29.8592 32.7353 29.353 34.8625 28.8707C38.2111 28.1116 41.2982 27.4117 44.6667 25.6662C51.7349 22.0036 53.5867 14.4771 53.0889 10.0498Z" fill="url(#paint8_linear_50_198)"/>
</g>
<defs>
<linearGradient id="paint0_linear_50_198" x1="34.8" y1="36.3995" x2="11.7334" y2="52.9329" gradientUnits="userSpaceOnUse">
<stop stop-color="#FE5004"/>
<stop offset="0.602538" stop-color="#FFB915"/>
<stop offset="1" stop-color="#FFFC41"/>
</linearGradient>
<linearGradient id="paint1_linear_50_198" x1="25.6667" y1="37.7995" x2="25.8" y2="40.1995" gradientUnits="userSpaceOnUse">
<stop stop-color="#FD3E00"/>
<stop offset="1" stop-color="#FD4400" stop-opacity="0"/>
</linearGradient>
<linearGradient id="paint2_linear_50_198" x1="39.3333" y1="23.9995" x2="6.79999" y2="52.9328" gradientUnits="userSpaceOnUse">
<stop stop-color="#005FC6"/>
<stop offset="0.279756" stop-color="#23A4DF"/>
<stop offset="0.465158" stop-color="#3AC2B7"/>
<stop offset="0.640642" stop-color="#60EC7A"/>
<stop offset="0.818668" stop-color="#CFFDBD"/>
<stop offset="1" stop-color="#D0FCB6"/>
</linearGradient>
<linearGradient id="paint3_linear_50_198" x1="32.7333" y1="29.5328" x2="29.9333" y2="26.9995" gradientUnits="userSpaceOnUse">
<stop stop-color="#0061CB"/>
<stop offset="1" stop-color="#067EEA" stop-opacity="0"/>
</linearGradient>
<linearGradient id="paint4_linear_50_198" x1="53.2" y1="9.99953" x2="10.4" y2="53.8662" gradientUnits="userSpaceOnUse">
<stop stop-color="#8E55F1"/>
<stop offset="0.140795" stop-color="#8B48DF"/>
<stop offset="0.274905" stop-color="#E04DD9"/>
<stop offset="0.492309" stop-color="#F496C8"/>
<stop offset="0.633104" stop-color="#FAD2BA"/>
<stop offset="0.856964" stop-color="#FEF7E5"/>
<stop offset="1" stop-color="#FFF5BF"/>
</linearGradient>
<linearGradient id="paint5_linear_50_198" x1="48.9999" y1="28.3329" x2="14.0666" y2="44.1329" gradientUnits="userSpaceOnUse">
<stop stop-color="#F41A73"/>
<stop offset="0.399909" stop-color="#FC50A3"/>
<stop offset="0.584511" stop-color="#FE9485"/>
<stop offset="0.703104" stop-color="#FFAF88"/>
<stop offset="1" stop-color="#FFC385"/>
</linearGradient>
<linearGradient id="paint6_linear_50_198" x1="36.3999" y1="33.1996" x2="36.4666" y2="36.3996" gradientUnits="userSpaceOnUse">
<stop stop-color="#9B0008"/>
<stop offset="1" stop-color="#EA115A" stop-opacity="0"/>
</linearGradient>
<linearGradient id="paint7_linear_50_198" x1="53.2" y1="13.5995" x2="21.6666" y2="34.1995" gradientUnits="userSpaceOnUse">
<stop stop-color="#231283"/>
<stop offset="0.362865" stop-color="#7053C6"/>
<stop offset="0.466353" stop-color="#7272DB"/>
<stop offset="0.634311" stop-color="#399EE9"/>
<stop offset="1" stop-color="#00CFFF"/>
</linearGradient>
<linearGradient id="paint8_linear_50_198" x1="45.3333" y1="23.9995" x2="46.7333" y2="25.7995" gradientUnits="userSpaceOnUse">
<stop stop-color="#3F259D" stop-opacity="0"/>
<stop offset="1" stop-color="#412DAA"/>
</linearGradient>
</defs>
</svg>
